<svg id="Capa_1" enable-background="new 0 0 501 501" height="512" viewBox="0 0 501 501" width="512" xmlns="http://www.w3.org/2000/svg"><g><path d="m495.5 245c0 135.31-109.69 245-245 245s-245-109.69-245-245 109.69-245 245-245 245 109.69 245 245z" fill="#81ade2"/><path d="m370.344 31.263v97.737h-24.844v-109.9c8.539 3.595 16.831 7.66 24.844 12.163zm-239.688 97.737h24.844v-109.9c-8.539 3.595-16.831 7.66-24.844 12.163z" fill="#528ed7"/><path d="m155.5 56.686v72.314h-24.844v-72.314c0 6.801 5.513 12.314 12.314 12.314h.217c6.8 0 12.313-5.513 12.313-12.314zm202.53 12.314h-.217c-6.801 0-12.314-5.513-12.314-12.314v72.314h24.844v-72.314c.001 6.801-5.512 12.314-12.313 12.314z" fill="#0573cd"/><path d="m250.5 501c-102.725 0-186-83.275-186-186v-194h372v194c0 102.725-83.275 186-186 186z" fill="#fc6930"/><path d="m271.742 499.8c-6.971.793-14.059 1.2-21.242 1.2-102.725 0-186-83.275-186-186v-194h42.484v194c0 95.542 72.036 174.259 164.758 184.8z" fill="#ee4424"/><path d="m94.5 315v-46c0-5.523 4.477-10 10-10h292c5.523 0 10 4.477 10 10v44.49c0 86.231-69.327 157.269-155.557 157.509-86.221.241-156.443-69.833-156.443-155.999z" fill="#783d3e"/><path d="m351.884 187.776c2.923-3.984 4.651-8.897 4.651-14.206 0-13.271-10.796-24.066-24.066-24.066h-20.913c-4.142 0-7.5 3.358-7.5 7.5v71.996c0 1.995.795 3.908 2.208 5.315 1.406 1.4 3.309 2.185 5.292 2.185h.033c.001 0 19.231-.085 24.532-.085 14.821 0 26.879-12.058 26.879-26.879 0-8.938-4.385-16.87-11.116-21.76zm-19.415-23.272c4.999 0 9.066 4.067 9.066 9.066s-4.067 9.066-9.066 9.066c-1.535 0-4.424.008-7.576.02h-5.837v-18.152zm3.652 56.911c-3.119 0-11.046.029-17.065.054v-23.79c1.874-.007 3.901-.015 5.83-.022h11.235c6.55 0 11.879 5.329 11.879 11.879s-5.329 11.879-11.879 11.879zm-54.96-64.411v49.489c0 8.017-3.07 19.119-17.695 26.484-4.644 2.338-9.766 3.523-15.226 3.523h-.051c-6.325-.008-12.145-1.683-17.299-4.976-9.929-6.344-14.756-14.515-14.756-24.979v-49.541c0-4.142 3.358-7.5 7.5-7.5s7.5 3.358 7.5 7.5v49.541c0 5.21 2.27 8.785 7.833 12.339 2.747 1.755 5.771 2.611 9.243 2.616 3.108.006 5.971-.642 8.51-1.92 8.462-4.262 9.441-9.51 9.441-13.087v-49.489c0-4.142 3.358-7.5 7.5-7.5s7.5 3.358 7.5 7.5zm-83.117 20.317c0 15.338-12.657 27.817-28.215 27.817-2.893 0-8.162.024-12.547.048v23.499c0 4.107-3.164 7.688-7.269 7.811-4.247.128-7.731-3.278-7.731-7.497v-72.496c0-3.866 3.134-7 7-7h20.547c15.558.001 28.215 12.48 28.215 27.818zm-15 0c0-6.948-6.052-12.817-13.215-12.817h-12.524c.014 4.708.028 10.335.028 12.817 0 2.944.024 8.359.047 12.864 4.374-.023 9.578-.047 12.449-.047 7.163.001 13.215-5.869 13.215-12.817zm-67.544 11.679c0 5.523-4.477 10-10 10s-10-4.477-10-10 4.477-10 10-10 10 4.477 10 10zm290 0c0 5.523-4.477 10-10 10s-10-4.477-10-10 4.477-10 10-10 10 4.477 10 10z" fill="#f5c02c"/><path d="m363 209.535c0 3.401-.635 6.656-1.792 9.653-1.645 4.261-6.733 6.025-10.701 3.762-3.214-1.833-4.603-5.734-3.283-9.191.6-1.571.875-3.301.744-5.107-.455-6.265-5.911-10.996-12.192-10.996h-6.378c-4.223 0-7.631-3.485-7.505-7.736.122-4.107 3.703-7.276 7.812-7.281 1.235-.001 2.247-.002 2.764-.002 5.205 0 9.399-4.409 9.046-9.688-.323-4.813-4.542-8.445-9.366-8.445h-.649c-4.219 0-7.624-3.483-7.497-7.731.123-4.104 3.704-7.269 7.811-7.269h.118c12.904 0 23.921 9.939 24.571 22.827.292 5.782-1.471 11.152-4.62 15.445 6.732 4.89 11.117 12.822 11.117 21.759zm-193.171-60.031h-.829c-4.142 0-7.5 3.358-7.5 7.5s3.358 7.5 7.5 7.5h.829c7.164 0 13.215 5.87 13.215 12.817 0 4.659-2.721 8.832-6.673 11.077-2.375 1.349-3.871 3.839-3.871 6.571 0 5.667 6.075 9.391 11.039 6.659 8.645-4.759 14.504-13.871 14.504-24.307.001-15.338-12.656-27.817-28.214-27.817zm104.062.003c-4.247-.127-7.731 3.278-7.731 7.497v38.732c0 4.429 3.817 7.893 8.225 7.465 3.843-.374 6.775-3.604 6.775-7.465v-38.417c.001-4.107-3.164-7.689-7.269-7.812z" fill="#f1ca50"/><path d="m362.62 320.969c4.044 15.091 5.3 30.794 3.706 46.336-1.594 15.542-.338 31.245 3.706 46.336l8.037 29.994c.902 3.366-1.096 6.826-4.462 7.728l-65.011 17.42c-3.366.902-6.826-1.096-7.728-4.462l-8.037-29.994c-4.044-15.091-10.807-29.318-19.959-41.981-9.151-12.663-15.915-26.89-19.959-41.981-.831-3.101 1.009-6.289 4.111-7.12l98.476-26.387c3.102-.831 6.289 1.01 7.12 4.111zm-224.24-32.584c-4.044 15.091-5.3 30.794-3.706 46.336 1.594 15.542.338 31.245-3.706 46.336l-8.037 29.994c-.902 3.366 1.096 6.826 4.462 7.728l65.011 17.42c3.366.902 6.826-1.096 7.728-4.462l8.037-29.994c4.044-15.091 10.807-29.318 19.959-41.981 9.151-12.663 15.915-26.89 19.959-41.981.831-3.101-1.009-6.289-4.111-7.12l-98.476-26.386c-3.102-.831-6.289 1.009-7.12 4.11z" fill="#f5c02c"/><path d="m348.45 318.747 7.05-1.889c3.077-.824 6.277.972 7.103 4.048 4.057 15.11 5.319 30.835 3.723 46.399-1.051 10.255-.862 20.579.55 30.751.483 3.481-1.645 6.79-5.04 7.7l-.023.006c-3.853 1.032-7.791-1.403-8.565-5.316-2.473-12.499-3.075-25.313-1.772-38.02 1.5-14.631.474-29.405-3.026-43.679zm-104.475-8.086-8.166-2.188c-4.114 13.91-10.556 27.03-19.062 38.8-6.65 9.202-14.581 30.501-18.419 41.455-1.277 3.644.821 7.601 4.555 8.586 3.375.89 6.822-1.009 7.963-4.307 4.099-11.851 9.917-23.053 17.281-33.244 9.164-12.681 15.934-26.93 19.976-42.044.823-3.078-1.051-6.234-4.128-7.058z" fill="#f1ca50"/><path d="m353.772 366.018c-1.757 17.133-.387 34.254 4.07 50.89 3.537 13.199-4.296 26.766-17.496 30.303l-5.023 1.346c-13.199 3.537-26.766-4.296-30.303-17.496-4.457-16.635-11.832-32.148-21.92-46.107-6.948-9.615 71.882-30.738 70.672-18.936zm-206.514-32.288c1.783 16.966.314 34.116-4.101 50.595-3.537 13.199 4.296 26.766 17.496 30.303l5.023 1.346c13.199 3.537 26.766-4.296 30.303-17.496 4.415-16.478 11.719-32.065 21.746-45.867 7.033-9.681-71.717-30.782-70.467-18.881z" fill="#ee4424"/><path d="m357.842 416.908c1.517 5.661.942 11.389-1.25 16.365-1.134.497-2.32.914-3.552 1.245l-5.023 1.346c-13.199 3.537-26.766-4.296-30.303-17.496-4.292-16.018-11.289-30.994-20.808-44.545 20.991-8.529 57.694-15.886 56.865-7.805-1.755 17.132-.386 34.254 4.071 50.89zm-190.417-85.583c-1.016.566-1.526 1.358-1.416 2.405 1.783 16.966.314 34.117-4.101 50.595-3.537 13.199 4.296 26.767 17.496 30.303l1.746.468c7.041-2.78 12.72-8.744 14.83-16.618 4.415-16.478 11.719-32.065 21.746-45.866 4.626-6.37-27.877-17.682-50.301-21.287z" fill="#fc6930"/><path d="m353.151 337.369c1.395 9.463 1.605 19.054.621 28.649-.125 1.217-.234 2.434-.327 3.65l-68.236 18.284c-.689-1.007-1.392-2.006-2.108-2.997-5.336-7.385-9.748-15.299-13.191-23.649-.922-2.235-4.14-9.592-4.578-11.169-.356-1.281-.547-2.631-.547-4.026 0-8.284 6.716-15 15-15 .925 0 1.831.084 2.709.244 1.635-6.513 7.529-11.336 14.549-11.336 5.744 0 10.734 3.229 13.254 7.971 2.734-3.669 7.107-6.046 12.035-6.046.329 0 .656.011.98.031 2.153-5.646 7.618-9.657 14.02-9.657 8.284 0 15 6.716 15 15 .001 1.23.498 7.874.819 10.051zm-129.802-41.369c-3.661 0-7.016 1.312-9.62 3.491-2.477-4.874-7.539-8.213-13.38-8.213-1.63 0-3.2.26-4.669.741-2.372-5.159-7.585-8.741-13.635-8.741-3.436 0-6.602 1.155-9.131 3.099-2.529-1.943-5.695-3.099-9.131-3.099-6.213 0-11.544 3.777-13.821 9.161-.759 1.795-2.232 12.887-2.586 15.964-.954 8.286-1.006 16.658-.147 25.032.125 1.217.248 2.437.341 3.653l68.206 18.28c.689-1.007 1.408-2.006 2.125-2.998 5.394-7.465 9.844-15.471 13.302-23.92.882-2.155 5.485-10.173 6.287-12.431.557-1.569.86-3.259.86-5.019-.001-8.284-6.717-15-15.001-15zm75.346-6.753c.249-.585.486-1.172.711-1.762 7.621-19.917-21.924-32.548-30.99-13.246-.277.591-.545 1.188-.802 1.793-5.193 12.214-5.327 25.31-1.346 36.951.942 2.755 4.114 4.103 6.752 2.87 11.145-5.209 20.482-14.392 25.675-26.606zm-51.236-32.65c-7.277-11.28-24.643-1.015-18.339 10.837.213.401.436.798.668 1.194 3.797 6.47 9.473 11.152 15.928 13.762 2.973 1.202 6.341-.775 6.742-3.956.87-6.909-.451-14.147-4.248-20.617-.243-.415-.493-.82-.751-1.22z" fill="#f7e6b0"/><path d="m353.445 369.668-50.48 13.526s-1.342-1.675-1.956-2.524c-6.631-9.176-12.113-19.011-16.391-29.386-1.145-2.777-5.144-11.919-5.689-13.879-.443-1.592-.679-3.27-.679-5.003 0-.409.013-.815.039-1.217.492-.049.991-.074 1.496-.074.925 0 1.831.084 2.709.244 1.635-6.513 7.529-11.336 14.549-11.336 5.744 0 10.734 3.229 13.254 7.971 2.734-3.669 7.107-6.046 12.035-6.046.329 0 .656.011.98.031 2.153-5.646 7.618-9.657 14.02-9.657 8.284 0 15 6.716 15 15 0 1.229.497 7.874.818 10.05 1.395 9.463 1.605 19.054.621 28.649-.123 1.218-.232 2.435-.326 3.651zm-135.546-17.297c5.394-7.464 9.844-15.471 13.302-23.92.882-2.155 5.485-10.173 6.287-12.431.557-1.569.86-3.259.86-5.02 0-8.284-6.716-15-15-15-3.661 0-7.016 1.312-9.62 3.491-2.477-4.874-7.539-8.213-13.38-8.213-1.63 0-3.2.26-4.669.741-2.372-5.159-7.585-8.741-13.635-8.741-3.436 0-6.602 1.155-9.131 3.099-1.045-.803-2.198-1.471-3.435-1.979-1.043 3.942-2.692 16.404-3.117 20.093-1.254 10.888-1.321 21.888-.193 32.892.164 1.599.338 3.221.461 4.82l49.145 13.167c.687-1.006 1.411-2.011 2.125-2.999zm16.805-95.317c-1.91 2.088-1.312 5.746 1.337 8.169s6.345 2.694 8.255.606 1.312-5.746-1.337-8.169c-2.648-2.423-6.344-2.694-8.255-.606zm56.38 18.594c-3.67-.584-7.245 2.715-7.986 7.369s1.633 8.901 5.303 9.485 7.245-2.715 7.986-7.369c.74-4.654-1.634-8.901-5.303-9.485z" fill="#fff5f5"/><path d="m485.5 99c0 16.568-13.431 30-30 30-.789 0-409.211 0-410 0-16.569 0-30-13.432-30-30s13.431-30 30-30 30 13.432 30 30h350c0-16.568 13.431-30 30-30s30 13.432 30 30z" fill="#783d3e"/><path d="m377 129h-269c-8.284 0-15-6.716-15-15 0-8.284 6.716-15 15-15h269c8.284 0 15 6.716 15 15 0 8.284-6.716 15-15 15zm-338.166-48.416c-4.361 4.361-3.121 12.671 2.77 18.562s14.201 7.13 18.562 2.77 3.121-12.671-2.77-18.562c-5.89-5.89-14.201-7.13-18.562-2.77zm409.334 0c-4.361 4.361-3.121 12.671 2.77 18.562s14.201 7.13 18.562 2.77c4.361-4.361 3.121-12.671-2.77-18.562-5.891-5.89-14.201-7.13-18.562-2.77z" fill="#8f4a4b"/></g></svg>